<svg width="660" height="661" viewBox="0 0 660 661" fill="none" xmlns="http://www.w3.org/2000/svg">
<g clip-path="url(#clip0_2_327)">
<path d="M654.348 330.706C654.39 368.263 648.064 405.55 635.642 440.954C635.634 440.978 635.626 440.993 635.619 441.017C635.564 441.182 635.51 441.331 635.448 441.495V441.503C632.798 449.012 629.886 456.396 626.713 463.654C618.707 481.958 609.067 499.489 597.912 516.031C595.208 520.06 592.407 524.024 589.511 527.922C586.325 532.233 583.038 536.458 579.649 540.597C576.525 544.414 573.318 548.158 570.028 551.829C566.119 556.203 562.094 560.465 557.952 564.614C548.203 574.407 537.852 583.57 526.96 592.048C525.048 593.546 523.115 595.017 521.162 596.461C516.616 599.848 511.979 603.114 507.251 606.26C496.853 613.193 486.066 619.516 474.946 625.197C473.026 626.185 471.091 627.157 469.149 628.098C461.634 631.758 453.966 635.126 446.145 638.201C443.915 639.087 441.677 639.941 439.415 640.764C439.035 640.913 438.654 641.055 438.265 641.188C411.449 650.95 383.475 657.112 355.065 659.514C353.091 659.694 351.115 659.846 349.136 659.969C347.037 660.118 344.937 660.238 342.833 660.329C341.17 660.415 339.515 660.478 337.844 660.525C337.502 660.541 337.152 660.557 336.81 660.557C334.564 660.627 332.311 660.671 330.049 660.69C329.093 660.698 328.137 660.705 327.174 660.705C326.723 660.705 326.272 660.705 325.822 660.698C319.301 660.674 312.831 660.46 306.409 660.055C306.277 660.047 306.145 660.031 306.012 660.031C303.712 659.875 301.42 659.71 299.135 659.506C290.998 658.816 282.95 657.823 274.989 656.528C273.155 656.237 271.326 655.924 269.503 655.587C261.584 654.176 253.768 652.475 246.056 650.484C243.764 649.896 241.484 649.282 239.218 648.642C226.136 644.97 213.295 640.472 200.773 635.176C193.584 632.134 186.531 628.847 179.611 625.315C176.495 623.724 173.41 622.083 170.356 620.392C169.524 619.938 168.7 619.475 167.877 619.013C161.862 615.626 155.971 612.057 150.205 608.305C145.48 605.241 140.843 602.053 136.294 598.742C135.734 598.351 135.183 597.943 134.631 597.535C131.142 594.972 127.709 592.344 124.334 589.65C116.99 583.779 109.908 577.61 103.087 571.143C98.3698 566.675 93.7899 562.066 89.3472 557.316C63.4615 529.704 42.4902 497.797 27.3552 462.996C24.1379 455.589 21.1847 448.046 18.4958 440.366C18.4871 440.349 18.4818 440.331 18.4803 440.312C6.20933 405.096 -0.0397159 368.034 3.78005e-05 330.706C3.78005e-05 192.154 84.6611 73.5423 204.651 24.6303C247.413 7.27305 293.321 -0.799594 339.384 0.938614C385.446 2.67682 430.629 14.1869 471.985 34.7184C580.038 88.5921 654.348 200.902 654.348 330.706Z" fill="#F2F2F2"/>
<path d="M471.985 34.7183V451.732H204.651V24.6303C247.413 7.27302 293.321 -0.799625 339.384 0.938584C385.446 2.67679 430.629 14.1868 471.985 34.7183Z" fill="white"/>
<path d="M268.983 224.886C276.235 212.788 284.829 199.871 298.287 195.921C313.872 191.346 329.883 200.434 343.463 209.402C384.076 236.222 423.187 265.287 460.617 296.465L460.576 296.934C431.435 294.907 402.294 292.88 373.154 290.853C352.1 289.389 330.322 287.723 311.716 277.677C304.656 273.865 297.774 268.772 289.773 268.418C279.833 267.977 271.166 274.979 264.355 282.294C224.066 325.568 212.407 391.743 167.206 429.762C195.708 358.863 229.741 290.357 268.983 224.886Z" fill="#F2F2F2"/>
<path d="M491.539 45.3548C490.863 44.9002 490.179 44.469 489.503 44.0301C469.959 31.4225 449.011 21.1803 427.091 13.515L422.009 84.2335H389.789V3.19171C387.76 2.76844 385.717 2.36868 383.673 1.99243V84.2335H345.383C324.304 84.2335 304.089 75.7877 289.184 60.7541C274.279 45.7205 265.906 25.3305 265.906 4.06972V4.06964C263.854 4.51643 261.818 4.99458 259.782 5.50408V84.2336H228.595L223.754 16.7993C201.228 25.5128 179.844 36.9714 160.075 50.9201C159.734 51.1553 159.392 51.3983 159.057 51.6334C157.34 52.8484 155.646 54.0868 153.959 55.341V448.981H245.871L244.247 426.288L235.31 177.848H415.287L406.349 426.288L404.725 448.981H495.619V48.0826C494.267 47.1577 492.907 46.2484 491.539 45.3548ZM259.782 157.272H233.833L229.038 90.4102H259.782V157.272ZM383.673 157.272H340.091V155.948C340.091 155.311 339.967 154.68 339.725 154.092C339.483 153.504 339.128 152.969 338.682 152.519C338.235 152.069 337.704 151.713 337.121 151.47C336.537 151.227 335.912 151.102 335.281 151.103H316.334C315.703 151.103 315.079 151.228 314.496 151.472C313.913 151.715 313.383 152.072 312.937 152.522C312.491 152.972 312.138 153.506 311.896 154.094C311.655 154.681 311.531 155.311 311.531 155.948V157.272H265.906V90.4102H383.673V157.272ZM389.789 157.272V90.4102H421.566L416.771 157.272H389.789Z" fill="#3F3D56"/>
<path d="M635.643 440.953C635.635 440.976 635.627 440.992 635.62 441.015C635.565 441.18 635.511 441.329 635.449 441.493V441.501C632.799 449.01 629.887 456.394 626.714 463.653L27.356 462.994C24.1386 455.587 21.1855 448.044 18.4966 440.365C18.4879 440.348 18.4826 440.329 18.4811 440.31L635.643 440.953Z" fill="#3F3D56"/>
<path d="M411.657 443.531H306.744V457.641H411.657V443.531Z" fill="white"/>
<path d="M167.869 581.702C168.242 578.386 168.757 575.091 169.415 571.817C173.012 554.065 180.73 537.426 191.937 523.266C198.348 523.626 203.967 522.639 204.503 510.113C204.604 507.887 206.244 505.951 206.601 503.756C205.995 503.842 205.366 503.889 204.759 503.928C204.565 503.936 204.363 503.952 204.177 503.96H204.107C203.434 503.992 202.766 503.826 202.184 503.484C201.602 503.141 201.132 502.636 200.828 502.029C200.525 501.422 200.402 500.74 200.475 500.064C200.548 499.389 200.813 498.749 201.239 498.222C201.503 497.901 201.768 497.571 202.032 497.242C202.428 496.733 202.84 496.239 203.244 495.737C203.291 495.682 203.33 495.635 203.376 495.58C203.835 495.008 204.293 494.436 204.759 493.864C203.917 492.545 202.784 491.44 201.449 490.634C196.825 487.899 190.445 489.796 187.103 494.013C183.754 498.23 183.116 504.156 184.282 509.423C185.277 513.938 187.445 518.077 189.877 522.012C189.629 522.333 189.364 522.647 189.116 522.976C184.532 528.923 180.537 535.307 177.187 542.039C178.135 534.569 166.548 507.605 162.064 501.89C156.678 495.032 145.643 498.026 144.695 506.727C144.687 506.805 144.671 506.891 144.664 506.978C145.332 507.354 145.985 507.754 146.622 508.185C147.423 508.724 148.043 509.495 148.402 510.396C148.76 511.298 148.841 512.287 148.632 513.235C148.424 514.183 147.937 515.046 147.234 515.71C146.531 516.374 145.646 516.808 144.695 516.956L144.594 516.972C135.688 529.803 164.247 563.203 171.405 555.709C169.605 560.809 168.169 566.033 167.107 571.339C166.154 576.02 165.49 580.755 165.118 585.519C164.664 591.518 164.693 597.545 165.203 603.54C165.189 603.47 165.179 603.399 165.172 603.328C163.579 590.269 136.325 570.853 128.367 572.468C123.782 573.401 119.267 573.189 119.966 577.853C119.974 577.931 119.99 578.002 119.997 578.08C121.233 578.583 122.435 579.167 123.596 579.828C124.264 580.204 124.917 580.612 125.554 581.035C126.303 581.541 126.896 582.25 127.263 583.08C127.631 583.911 127.758 584.829 127.631 585.73C127.503 586.63 127.126 587.476 126.543 588.169C125.959 588.863 125.194 589.376 124.334 589.65C127.714 592.338 131.147 594.967 134.631 597.535C135.183 597.943 135.734 598.35 136.294 598.742C140.84 602.05 145.477 605.238 150.205 608.305C155.971 612.052 161.862 615.621 167.877 619.013C168.7 619.475 169.524 619.938 170.356 620.392C168.265 611.716 167.206 602.819 167.201 593.89C167.199 589.818 167.422 585.749 167.869 581.702ZM172.12 553.695L172.135 553.671C172.135 553.686 172.13 553.7 172.12 553.71V553.695ZM165.926 610.061L165.685 609.52C165.693 609.121 165.693 608.729 165.685 608.321C165.685 608.211 165.662 608.102 165.662 607.992C165.755 608.689 165.833 609.387 165.934 610.085L165.926 610.061ZM201.62 611.127C201.705 610.767 201.775 610.516 201.861 610.155C201.83 610.077 201.799 609.998 201.768 609.928C199.18 603.712 185.518 616.246 179.611 625.315C186.528 628.842 193.582 632.129 200.773 635.176C201.255 634.564 201.752 633.961 202.242 633.349C202.288 633.294 202.327 633.247 202.366 633.192C203.423 631.876 204.487 630.574 205.537 629.258C205.544 628.999 205.544 628.74 205.544 628.489C205.534 624.714 205.075 620.953 204.177 617.288C203.455 617.322 202.74 617.131 202.129 616.741C201.519 616.351 201.042 615.782 200.763 615.109C200.484 614.437 200.416 613.694 200.57 612.982C200.723 612.27 201.09 611.622 201.62 611.127V611.127Z" fill="white"/>
<path d="M369.728 447.99C371.594 449.288 373.719 450.158 375.955 450.538C378.19 450.918 380.48 450.799 382.665 450.189C384.85 449.579 386.876 448.494 388.6 447.01C390.323 445.525 391.704 443.677 392.643 441.596L447.504 446.772L434.036 421.286L384.003 420.278C380.433 418.918 376.492 418.927 372.927 420.302C369.363 421.677 366.422 424.323 364.662 427.738C362.903 431.154 362.447 435.102 363.38 438.835C364.314 442.567 366.572 445.825 369.728 447.99V447.99Z" fill="#FFB6B6"/>
<path d="M425.357 446.245L501.276 454.83L501.537 454.492C502.038 453.847 551.714 389.71 560.06 374.443C565.195 365.27 567.065 354.602 565.36 344.209L565.303 343.955L565.105 343.786C561.058 340.365 555.976 338.438 550.697 338.321C545.417 338.204 540.256 339.905 536.065 343.144C515.908 358.89 499.656 379.145 488.591 402.311L482.312 415.497L425.357 421.162V446.245Z" fill="#00BFA6"/>
<path d="M363.763 625.622L349.138 659.971C347.039 660.119 344.938 660.24 342.835 660.331C341.172 660.417 339.517 660.48 337.846 660.527L337.278 660.707L336.812 660.558C334.566 660.629 332.313 660.673 330.051 660.692C329.095 660.699 328.139 660.707 327.176 660.707C326.725 660.707 326.274 660.707 325.823 660.699L326.795 657.345L327.937 653.371L332.476 637.631L339.027 614.907L348.772 619.124L363.763 625.622Z" fill="#FFB6B6"/>
<path d="M469.151 628.099C461.636 631.76 453.968 635.128 446.147 638.203L438.5 625.23L463.151 614.312L469.151 628.099Z" fill="#FFB6B6"/>
<path d="M521.164 569.138V596.463C516.618 599.85 511.981 603.116 507.253 606.261V569.138H521.164Z" fill="#CACACA"/>
<path d="M570.03 551.831C566.121 556.205 562.096 560.466 557.954 564.616C548.205 574.408 537.854 583.571 526.962 592.05H464.946C463.3 592.05 461.672 591.696 460.172 591.011C458.673 590.325 457.335 589.325 456.25 588.076L456.242 588.053C454.949 586.581 454.05 584.8 453.631 582.879L453.623 582.864C453.448 582.039 453.359 581.198 453.359 580.355V563.526C453.361 560.426 454.582 557.454 456.755 555.262C458.927 553.069 461.873 551.835 464.946 551.831H570.03Z" fill="#3F3D56"/>
<path d="M595.583 486.145L588.86 515.194C589.518 519.403 589.736 523.669 589.513 527.924C586.327 532.235 583.04 536.46 579.651 540.599C576.527 544.416 573.32 548.16 570.03 551.831C566.121 556.205 562.096 560.466 557.954 564.616C547.167 568.033 534.453 569.428 521.164 569.523C516.579 569.562 511.924 569.436 507.253 569.185C488.315 568.182 469.158 565.117 453.468 561.935C449.318 561.104 445.417 560.257 441.826 559.434C435.026 557.89 429.338 556.448 425.219 555.351C420.58 554.128 417.937 553.336 417.937 553.336L400.289 583.146L384.264 610.204L363.616 636.784C361.642 636.965 359.665 637.116 357.686 637.239C355.588 637.388 353.487 637.508 351.383 637.6C349.72 637.686 348.065 637.748 346.394 637.795L345.827 637.976L345.361 637.827L337.869 635.42L335.343 634.613L326.259 631.697C326.259 631.697 328.287 625.254 331.838 614.507C333.144 610.565 342.392 581.413 352.067 555.962C354.935 548.406 357.904 540.74 360.958 533.113C363.46 526.85 366.009 520.611 368.589 514.457C373.073 503.789 394.74 498.036 420.253 495.018C421.551 494.869 422.856 494.72 424.17 494.579C437.171 493.199 450.965 492.486 463.866 492.157C470.324 491.992 476.556 491.93 482.354 491.922C484.227 491.922 486.048 491.927 487.817 491.937H487.825C492.604 491.961 497.003 492.032 500.873 492.11C501.627 492.126 502.357 492.149 503.072 492.165H503.08C503.562 492.173 504.036 492.188 504.502 492.196C512.965 492.416 518.156 492.682 518.156 492.682L520.169 476.754L520.581 473.541L520.97 470.484V470.476L521.016 470.092L521.335 470.084L526.93 469.974L573.963 469.049L593.995 468.193L595.583 486.145Z" fill="#2F2E41"/>
<path d="M467.954 615.009C466.034 615.997 464.099 616.969 462.156 617.909C454.641 621.57 446.974 624.938 439.153 628.013C436.923 628.899 434.685 629.753 432.423 630.576C432.174 630.224 431.918 629.871 431.661 629.518C420.875 614.586 414.16 605.07 400.289 583.146C394.483 573.975 388.647 564.412 382.982 554.645L423.999 535.331L428.6 533.168L441.826 559.434L453.623 582.864L456.25 588.076L467.954 615.009Z" fill="#2F2E41"/>
<path d="M534.486 298.611C555.356 298.611 572.274 281.546 572.274 260.496C572.274 239.446 555.356 222.381 534.486 222.381C513.616 222.381 496.697 239.446 496.697 260.496C496.697 281.546 513.616 298.611 534.486 298.611Z" fill="#FFB6B6"/>
<path d="M601.94 378.97C601.629 347.49 602.546 356.606 600.074 345.766C593.438 316.622 565.888 311.308 561.086 310.65C560.574 309.276 559.788 308.023 558.776 306.969C557.763 305.915 556.547 305.083 555.202 304.523C553.857 303.964 552.413 303.689 550.958 303.717C549.504 303.745 548.07 304.074 546.747 304.685L537.553 309.494C528.639 313.609 534.049 319.554 530.972 328.937L527.739 338.892L501.246 412.753L506.608 440.854L506.616 440.87L510.23 459.8L520.945 472.112L520.744 470.147L520.504 470.523L520.496 470.531L519.874 471.463C520.737 471.942 521.592 472.412 522.431 472.882C524.607 474.089 526.728 475.273 528.796 476.433C529.293 476.715 529.783 476.99 530.272 477.272H530.28C530.591 477.444 530.902 477.617 531.205 477.789C538.961 482.163 510.253 490.127 516.633 493.866C517.519 494.383 518.398 494.9 519.26 495.41C548.636 512.741 572.074 534.328 579.651 540.599C583.04 536.46 586.327 532.235 589.513 527.924C592.404 524.028 595.204 520.064 597.914 516.033C598.388 512.882 598.707 509.731 599.018 506.642C599.391 502.927 597.448 468.508 598.101 464.722C598.388 463.045 597.285 461.454 596.22 459.917C595.233 458.483 594.3 457.135 594.495 455.865C594.697 454.556 596.127 453.129 597.518 451.742C599.033 450.221 600.603 448.653 600.828 447C601.45 442.391 598.893 437.766 599.375 433.125C600.168 425.577 600.776 418.005 601.201 410.41C601.8 399.922 602.046 389.442 601.94 378.97Z" fill="#00BFA6"/>
<path d="M388.799 456.17C390.359 454.512 392.261 453.218 394.37 452.381C396.48 451.544 398.745 451.184 401.008 451.325C403.27 451.467 405.474 452.107 407.465 453.201C409.456 454.295 411.184 455.815 412.529 457.656L465.15 441.171L457.187 468.912L408.438 480.313C405.222 482.387 401.365 483.2 397.595 482.596C393.826 481.993 390.407 480.016 387.987 477.04C385.566 474.064 384.312 470.296 384.461 466.45C384.611 462.603 386.154 458.946 388.799 456.171L388.799 456.17Z" fill="#FFB6B6"/>
<path d="M452.594 471.517L550.266 451.207L524.918 457.539C525.205 456.773 553.694 380.627 557.155 363.545C559.349 353.246 557.985 342.5 553.289 333.091L553.16 332.866L552.921 332.764C548.048 330.714 542.627 330.4 537.553 331.874C532.479 333.348 528.054 336.522 525.008 340.872C510.415 361.957 500.879 386.175 497.154 411.614L495.053 426.086L460.617 436.477L452.594 471.517Z" fill="#00BFA6"/>
<path d="M270.569 440.5C270.911 441.505 271.561 442.375 272.424 442.985C273.288 443.595 274.32 443.914 275.374 443.895L295.962 443.36C297.023 443.339 298.05 442.972 298.888 442.314C299.725 441.657 300.33 440.743 300.61 439.71L303.523 408.288C304.557 408.76 305.682 408.993 306.817 408.97C308.807 408.92 310.697 408.074 312.069 406.618C313.441 405.163 314.184 403.217 314.134 401.209C314.084 399.202 313.245 397.296 311.802 395.912C310.359 394.528 308.43 393.779 306.44 393.829C305.986 393.827 305.534 393.875 305.091 393.97C304.608 393.444 304.022 393.026 303.37 392.742C302.717 392.458 302.013 392.315 301.303 392.322L269.634 393.147C269.371 393.157 269.11 393.189 268.853 393.245C268.158 393.375 267.5 393.654 266.921 394.063C266.343 394.472 265.858 395.001 265.499 395.615C265.14 396.229 264.916 396.913 264.841 397.622C264.766 398.33 264.843 399.047 265.066 399.723L270.569 440.5ZM304.121 406.154L306.194 398.666C306.43 397.801 306.435 396.889 306.21 396.021C306.31 396.021 306.399 395.973 306.5 395.972C307.921 395.943 309.296 396.483 310.323 397.474C311.351 398.466 311.946 399.828 311.979 401.261C312.013 402.695 311.481 404.083 310.501 405.122C309.521 406.161 308.172 406.765 306.751 406.803C305.832 406.832 304.923 406.608 304.121 406.154Z" fill="#2F2E41"/>
<path d="M268.853 393.245C269.528 397.136 277.113 399.871 286.234 399.396C294.622 399.006 301.48 396.035 302.736 392.515C302.271 392.376 301.788 392.311 301.303 392.322L269.634 393.147C269.371 393.157 269.11 393.189 268.853 393.245Z" fill="#3F3D56"/>
<path d="M131.136 364.799V431.978C131.137 432.834 131.474 433.655 132.074 434.26C132.674 434.865 133.488 435.206 134.337 435.206H233.037C233.885 435.206 234.699 434.865 235.299 434.26C235.899 433.655 236.237 432.834 236.238 431.978V364.799C236.236 363.944 235.898 363.124 235.298 362.519C234.698 361.915 233.885 361.575 233.037 361.574H134.337C133.489 361.575 132.676 361.915 132.076 362.519C131.476 363.124 131.138 363.944 131.136 364.799Z" fill="#3F3D56"/>
<path d="M133.451 365.635V431.149C133.452 431.606 133.633 432.045 133.953 432.368C134.274 432.692 134.709 432.874 135.162 432.875H232.215C232.668 432.874 233.103 432.692 233.424 432.368C233.744 432.045 233.925 431.606 233.926 431.149V365.635C233.926 365.177 233.746 364.738 233.425 364.414C233.104 364.089 232.669 363.907 232.215 363.906H135.162C134.708 363.907 134.273 364.089 133.952 364.413C133.632 364.738 133.451 365.177 133.451 365.635Z" fill="#00BFA6"/>
<path d="M129.072 445.079C129.253 445.308 129.482 445.492 129.744 445.619C130.006 445.745 130.292 445.81 130.582 445.808H236.266C236.555 445.808 236.84 445.743 237.101 445.617C237.362 445.491 237.592 445.309 237.774 445.082C237.956 444.856 238.086 444.591 238.154 444.308C238.222 444.025 238.226 443.73 238.167 443.444L236.527 435.585C236.459 435.264 236.312 434.966 236.101 434.717C235.889 434.468 235.619 434.276 235.316 434.16C235.096 434.073 234.862 434.028 234.626 434.028H132.216C131.98 434.028 131.746 434.073 131.526 434.16C131.222 434.276 130.952 434.468 130.741 434.717C130.53 434.966 130.383 435.264 130.315 435.585L128.675 443.444C128.616 443.73 128.622 444.024 128.69 444.307C128.759 444.59 128.889 444.854 129.072 445.079Z" fill="#2F2E41"/>
<path d="M230.999 437.414H233.496C233.705 437.414 233.875 437.242 233.875 437.031V435.827C233.875 435.615 233.705 435.444 233.496 435.444H230.999C230.79 435.444 230.62 435.615 230.62 435.827V437.031C230.62 437.242 230.79 437.414 230.999 437.414Z" fill="#3F3D56"/>
<path d="M224.489 437.414H226.986C227.195 437.414 227.365 437.242 227.365 437.031V435.827C227.365 435.615 227.195 435.444 226.986 435.444H224.489C224.28 435.444 224.11 435.615 224.11 435.827V437.031C224.11 437.242 224.28 437.414 224.489 437.414Z" fill="#3F3D56"/>
<path d="M217.979 437.414H220.475C220.685 437.414 220.855 437.242 220.855 437.031V435.827C220.855 435.615 220.685 435.444 220.475 435.444H217.979C217.77 435.444 217.6 435.615 217.6 435.827V437.031C217.6 437.242 217.77 437.414 217.979 437.414Z" fill="#3F3D56"/>
<path d="M211.469 437.414H213.965C214.175 437.414 214.345 437.242 214.345 437.031V435.827C214.345 435.615 214.175 435.444 213.965 435.444H211.469C211.26 435.444 211.09 435.615 211.09 435.827V437.031C211.09 437.242 211.26 437.414 211.469 437.414Z" fill="#3F3D56"/>
<path d="M204.959 437.414H207.455C207.665 437.414 207.835 437.242 207.835 437.031V435.827C207.835 435.615 207.665 435.444 207.455 435.444H204.959C204.75 435.444 204.58 435.615 204.58 435.827V437.031C204.58 437.242 204.75 437.414 204.959 437.414Z" fill="#3F3D56"/>
<path d="M198.449 437.414H200.945C201.155 437.414 201.325 437.242 201.325 437.031V435.827C201.325 435.615 201.155 435.444 200.945 435.444H198.449C198.24 435.444 198.07 435.615 198.07 435.827V437.031C198.07 437.242 198.24 437.414 198.449 437.414Z" fill="#3F3D56"/>
<path d="M191.939 437.414H194.435C194.645 437.414 194.815 437.242 194.815 437.031V435.827C194.815 435.615 194.645 435.444 194.435 435.444H191.939C191.73 435.444 191.56 435.615 191.56 435.827V437.031C191.56 437.242 191.73 437.414 191.939 437.414Z" fill="#3F3D56"/>
<path d="M185.429 437.414H187.925C188.135 437.414 188.305 437.242 188.305 437.031V435.827C188.305 435.615 188.135 435.444 187.925 435.444H185.429C185.219 435.444 185.05 435.615 185.05 435.827V437.031C185.05 437.242 185.219 437.414 185.429 437.414Z" fill="#3F3D56"/>
<path d="M178.919 437.414H181.415C181.625 437.414 181.795 437.242 181.795 437.031V435.827C181.795 435.615 181.625 435.444 181.415 435.444H178.919C178.709 435.444 178.54 435.615 178.54 435.827V437.031C178.54 437.242 178.709 437.414 178.919 437.414Z" fill="#3F3D56"/>
<path d="M172.409 437.414H174.905C175.115 437.414 175.285 437.242 175.285 437.031V435.827C175.285 435.615 175.115 435.444 174.905 435.444H172.409C172.199 435.444 172.03 435.615 172.03 435.827V437.031C172.03 437.242 172.199 437.414 172.409 437.414Z" fill="#3F3D56"/>
<path d="M165.899 437.414H168.395C168.605 437.414 168.775 437.242 168.775 437.031V435.827C168.775 435.615 168.605 435.444 168.395 435.444H165.899C165.689 435.444 165.52 435.615 165.52 435.827V437.031C165.52 437.242 165.689 437.414 165.899 437.414Z" fill="#3F3D56"/>
<path d="M159.389 437.414H161.885C162.095 437.414 162.264 437.242 162.264 437.031V435.827C162.264 435.615 162.095 435.444 161.885 435.444H159.389C159.179 435.444 159.009 435.615 159.009 435.827V437.031C159.009 437.242 159.179 437.414 159.389 437.414Z" fill="#3F3D56"/>
<path d="M152.879 437.414H155.375C155.585 437.414 155.754 437.242 155.754 437.031V435.827C155.754 435.615 155.585 435.444 155.375 435.444H152.879C152.669 435.444 152.499 435.615 152.499 435.827V437.031C152.499 437.242 152.669 437.414 152.879 437.414Z" fill="#3F3D56"/>
<path d="M146.369 437.414H148.865C149.075 437.414 149.244 437.242 149.244 437.031V435.827C149.244 435.615 149.075 435.444 148.865 435.444H146.369C146.159 435.444 145.989 435.615 145.989 435.827V437.031C145.989 437.242 146.159 437.414 146.369 437.414Z" fill="#3F3D56"/>
<path d="M139.859 437.414H142.355C142.564 437.414 142.734 437.242 142.734 437.031V435.827C142.734 435.615 142.564 435.444 142.355 435.444H139.859C139.649 435.444 139.479 435.615 139.479 435.827V437.031C139.479 437.242 139.649 437.414 139.859 437.414Z" fill="#3F3D56"/>
<path d="M133.349 437.414H135.845C136.054 437.414 136.224 437.242 136.224 437.031V435.827C136.224 435.615 136.054 435.444 135.845 435.444H133.349C133.139 435.444 132.969 435.615 132.969 435.827V437.031C132.969 437.242 133.139 437.414 133.349 437.414Z" fill="#3F3D56"/>
<path d="M231.076 440.697H233.572C233.782 440.697 233.952 440.526 233.952 440.314V439.11C233.952 438.898 233.782 438.727 233.572 438.727H231.076C230.867 438.727 230.697 438.898 230.697 439.11V440.314C230.697 440.526 230.867 440.697 231.076 440.697Z" fill="#3F3D56"/>
<path d="M224.566 440.697H227.062C227.272 440.697 227.442 440.526 227.442 440.314V439.11C227.442 438.898 227.272 438.727 227.062 438.727H224.566C224.357 438.727 224.187 438.898 224.187 439.11V440.314C224.187 440.526 224.357 440.697 224.566 440.697Z" fill="#3F3D56"/>
<path d="M218.056 440.697H220.552C220.762 440.697 220.932 440.526 220.932 440.314V439.11C220.932 438.898 220.762 438.727 220.552 438.727H218.056C217.847 438.727 217.677 438.898 217.677 439.11V440.314C217.677 440.526 217.847 440.697 218.056 440.697Z" fill="#3F3D56"/>
<path d="M211.546 440.697H214.042C214.252 440.697 214.422 440.526 214.422 440.314V439.11C214.422 438.898 214.252 438.727 214.042 438.727H211.546C211.337 438.727 211.167 438.898 211.167 439.11V440.314C211.167 440.526 211.337 440.697 211.546 440.697Z" fill="#3F3D56"/>
<path d="M205.036 440.697H207.532C207.742 440.697 207.912 440.526 207.912 440.314V439.11C207.912 438.898 207.742 438.727 207.532 438.727H205.036C204.827 438.727 204.657 438.898 204.657 439.11V440.314C204.657 440.526 204.827 440.697 205.036 440.697Z" fill="#3F3D56"/>
<path d="M198.526 440.697H201.022C201.232 440.697 201.402 440.526 201.402 440.314V439.11C201.402 438.898 201.232 438.727 201.022 438.727H198.526C198.317 438.727 198.147 438.898 198.147 439.11V440.314C198.147 440.526 198.317 440.697 198.526 440.697Z" fill="#3F3D56"/>
<path d="M192.016 440.697H194.512C194.722 440.697 194.892 440.526 194.892 440.314V439.11C194.892 438.898 194.722 438.727 194.512 438.727H192.016C191.806 438.727 191.637 438.898 191.637 439.11V440.314C191.637 440.526 191.806 440.697 192.016 440.697Z" fill="#3F3D56"/>
<path d="M185.506 440.697H188.002C188.212 440.697 188.382 440.526 188.382 440.314V439.11C188.382 438.898 188.212 438.727 188.002 438.727H185.506C185.296 438.727 185.127 438.898 185.127 439.11V440.314C185.127 440.526 185.296 440.697 185.506 440.697Z" fill="#3F3D56"/>
<path d="M178.996 440.697H181.492C181.702 440.697 181.872 440.526 181.872 440.314V439.11C181.872 438.898 181.702 438.727 181.492 438.727H178.996C178.786 438.727 178.617 438.898 178.617 439.11V440.314C178.617 440.526 178.786 440.697 178.996 440.697Z" fill="#3F3D56"/>
<path d="M172.486 440.697H174.982C175.192 440.697 175.361 440.526 175.361 440.314V439.11C175.361 438.898 175.192 438.727 174.982 438.727H172.486C172.276 438.727 172.106 438.898 172.106 439.11V440.314C172.106 440.526 172.276 440.697 172.486 440.697Z" fill="#3F3D56"/>
<path d="M165.976 440.697H168.472C168.682 440.697 168.851 440.526 168.851 440.314V439.11C168.851 438.898 168.682 438.727 168.472 438.727H165.976C165.766 438.727 165.596 438.898 165.596 439.11V440.314C165.596 440.526 165.766 440.697 165.976 440.697Z" fill="#3F3D56"/>
<path d="M159.466 440.697H161.962C162.172 440.697 162.341 440.526 162.341 440.314V439.11C162.341 438.898 162.172 438.727 161.962 438.727H159.466C159.256 438.727 159.086 438.898 159.086 439.11V440.314C159.086 440.526 159.256 440.697 159.466 440.697Z" fill="#3F3D56"/>
<path d="M152.956 440.697H155.452C155.661 440.697 155.831 440.526 155.831 440.314V439.11C155.831 438.898 155.661 438.727 155.452 438.727H152.956C152.746 438.727 152.576 438.898 152.576 439.11V440.314C152.576 440.526 152.746 440.697 152.956 440.697Z" fill="#3F3D56"/>
<path d="M146.446 440.697H148.942C149.151 440.697 149.321 440.526 149.321 440.314V439.11C149.321 438.898 149.151 438.727 148.942 438.727H146.446C146.236 438.727 146.066 438.898 146.066 439.11V440.314C146.066 440.526 146.236 440.697 146.446 440.697Z" fill="#3F3D56"/>
<path d="M139.936 440.697H142.432C142.641 440.697 142.811 440.526 142.811 440.314V439.11C142.811 438.898 142.641 438.727 142.432 438.727H139.936C139.726 438.727 139.556 438.898 139.556 439.11V440.314C139.556 440.526 139.726 440.697 139.936 440.697Z" fill="#3F3D56"/>
<path d="M133.426 440.697H135.922C136.131 440.697 136.301 440.526 136.301 440.314V439.11C136.301 438.898 136.131 438.727 135.922 438.727H133.426C133.216 438.727 133.046 438.898 133.046 439.11V440.314C133.046 440.526 133.216 440.697 133.426 440.697Z" fill="#3F3D56"/>
<path d="M177.043 444.637H202.324C202.534 444.637 202.704 444.465 202.704 444.254V443.049C202.704 442.838 202.534 442.667 202.324 442.667H177.043C176.833 442.667 176.663 442.838 176.663 443.049V444.254C176.663 444.465 176.833 444.637 177.043 444.637Z" fill="#3F3D56"/>
<path d="M367.553 441.426L411.726 402.474C413.826 400.622 409.821 406.14 411.657 408.258C413.493 410.377 420.476 408.293 418.375 410.145L374.203 449.098L363.017 451.674L367.553 441.426Z" fill="#3F3D56"/>
<path d="M367.553 441.426L368.624 440.482C370.053 441.205 371.328 442.202 372.378 443.419C373.62 444.849 374.523 446.546 375.016 448.381L374.203 449.098L365.287 451.15L363.017 451.674L363.963 449.527L367.553 441.426Z" fill="#CCCCCC"/>
<path d="M363.964 449.527C364.295 449.674 364.587 449.898 364.817 450.18C365.047 450.462 365.208 450.794 365.288 451.15L363.017 451.674L363.964 449.527Z" fill="#3F3D56"/>
<path d="M655.762 316.581C651.597 322.868 644.929 327.218 637.748 329.374C634.831 330.249 631.82 330.765 628.78 330.91C628.405 327.443 627.506 324.054 626.114 320.861C626.256 324.26 625.787 327.656 624.731 330.887C620.166 330.626 615.703 329.42 611.621 327.344C603.655 323.228 597.524 315.359 596.164 306.431C594.563 296.005 599.249 285.768 600.943 275.359C602.645 264.95 599.451 251.765 589.348 249.03C581.654 246.945 582.517 247.846 576.121 252.635C582.774 262.557 558.201 298.917 548.144 295.747C542.459 293.954 538.819 288.692 537.645 288.692C529.742 302.425 544.624 325.564 529.625 330.369L530.861 329.123C539.915 317.89 520.991 294.116 530.045 282.884C532.571 279.741 535.259 276.017 534.513 272.043C533.806 268.265 527.861 266.266 526.12 269.37C529.252 262.135 524.628 252.479 516.974 250.621C510.174 248.967 510.298 251.005 503.475 251.891C503.029 248.916 502.195 246.015 500.996 243.26C501.121 246.228 500.777 249.197 499.978 252.055C497.567 252.008 495.24 251.159 493.356 249.641C487.792 245.118 488.919 235.618 493.885 230.437C498.858 225.256 506.249 223.39 513.298 222.183C515.347 207.791 554.715 206.29 559.933 220.67C562.156 209.931 575.484 204.358 585.843 207.69C596.202 211.021 603.391 220.78 607.176 231.064C610.96 241.34 612.017 252.4 614.348 263.107C616.68 273.815 620.62 284.718 628.733 292.016C636.847 299.305 650.066 301.72 658.614 294.947C661.311 302.002 659.92 310.287 655.762 316.581Z" fill="#2F2E41"/>
</g>
<defs>
<clipPath id="clip0_2_327">
<rect width="660" height="660" fill="white" transform="translate(0 0.707275)"/>
</clipPath>
</defs>
</svg>
