<svg width="107" height="107" viewBox="0 0 107 107" fill="none" xmlns="http://www.w3.org/2000/svg">
<path fill-rule="evenodd" clip-rule="evenodd" d="M9.4863 0.949493C4.60387 0.949493 0.645874 4.90749 0.645874 9.78992V98.1091C0.645874 102.992 4.60387 106.949 9.4863 106.949H97.8055C102.688 106.949 106.646 102.992 106.646 98.1091V9.78992C106.646 4.90749 102.688 0.949493 97.8055 0.949493H9.4863ZM10.5834 32.2136C10.5888 31.9544 20.0683 27.7901 31.6498 22.9606C43.2314 18.1303 53.3188 14.3574 54.0663 14.5767C54.8138 14.795 64.5995 18.8099 75.8123 23.497L96.1992 32.0206L96.4538 42.9814L96.7084 53.9414H93.056H89.4036V44.8806C89.4036 39.8971 89.1263 35.8198 88.7883 35.8198C88.4504 35.8198 86.8194 36.3091 85.164 36.908L82.1549 37.9962V47.3062C82.1549 55.0151 82.4657 57.1263 83.9634 59.5827C84.9583 61.2146 85.7729 63.5686 85.7729 64.8144C85.7729 67.6949 82.7837 72.6466 80.6318 73.3316C79.7257 73.6206 77.9996 75.7146 76.7972 77.9843C74.0898 83.0965 68.4758 88.8012 63.6264 91.3699C58.3457 94.167 47.8751 94.1117 42.4766 91.2585C37.5647 88.6625 32.3484 83.3175 29.5251 77.9889C28.3218 75.7164 26.5948 73.6206 25.6887 73.3316C23.5368 72.6466 20.5476 67.6949 20.5476 64.8144C20.5476 63.5686 21.3622 61.2146 22.357 59.5827C23.8539 57.1272 24.1647 55.0197 24.162 47.3506L24.1583 38.085L17.3663 35.3848C13.6306 33.8989 10.5789 32.4718 10.5834 32.2136ZM74.9062 56.6225C74.9062 54.351 74.4169 52.0024 73.8189 51.4044C72.2786 49.8641 34.0419 49.8641 32.5015 51.4044C31.9035 52.0024 31.4142 54.351 31.4142 56.6225C31.4142 59.773 30.9839 61.0234 29.6021 61.886C26.5314 63.8032 27.8325 68.4388 31.4405 68.4388C32.3221 68.4388 33.7601 70.2391 35.0105 72.9094C38.6901 80.7651 46.3954 86.5604 53.1602 86.5604C59.9251 86.5604 67.6304 80.7651 71.31 72.9094C72.5604 70.2391 73.9983 68.4388 74.88 68.4388C78.488 68.4388 79.7891 63.8032 76.7184 61.886C75.3366 61.0234 74.9062 59.773 74.9062 56.6225Z" fill="#00BFA6"/>
<path fill-rule="evenodd" clip-rule="evenodd" d="M9.4863 0.949493C4.60387 0.949493 0.645874 4.90749 0.645874 9.78992V98.1091C0.645874 102.992 4.60387 106.949 9.4863 106.949H97.8055C102.688 106.949 106.646 102.992 106.646 98.1091V9.78992C106.646 4.90749 102.688 0.949493 97.8055 0.949493H9.4863ZM10.5834 32.2136C10.5888 31.9544 20.0683 27.7901 31.6498 22.9606C43.2314 18.1303 53.3188 14.3574 54.0663 14.5767C54.8138 14.795 64.5995 18.8099 75.8123 23.497L96.1992 32.0206L96.4538 42.9814L96.7084 53.9414H93.056H89.4036V44.8806C89.4036 39.8971 89.1263 35.8198 88.7883 35.8198C88.4504 35.8198 86.8194 36.3091 85.164 36.908L82.1549 37.9962V47.3062C82.1549 55.0151 82.4657 57.1263 83.9634 59.5827C84.9583 61.2146 85.7729 63.5686 85.7729 64.8144C85.7729 67.6949 82.7837 72.6466 80.6318 73.3316C79.7257 73.6206 77.9996 75.7146 76.7972 77.9843C74.0898 83.0965 68.4758 88.8012 63.6264 91.3699C58.3457 94.167 47.8751 94.1117 42.4766 91.2585C37.5647 88.6625 32.3484 83.3175 29.5251 77.9889C28.3218 75.7164 26.5948 73.6206 25.6887 73.3316C23.5368 72.6466 20.5476 67.6949 20.5476 64.8144C20.5476 63.5686 21.3622 61.2146 22.357 59.5827C23.8539 57.1272 24.1647 55.0197 24.162 47.3506L24.1583 38.085L17.3663 35.3848C13.6306 33.8989 10.5789 32.4718 10.5834 32.2136ZM74.9062 56.6225C74.9062 54.351 74.4169 52.0024 73.8189 51.4044C72.2786 49.8641 34.0419 49.8641 32.5015 51.4044C31.9035 52.0024 31.4142 54.351 31.4142 56.6225C31.4142 59.773 30.9839 61.0234 29.6021 61.886C26.5314 63.8032 27.8325 68.4388 31.4405 68.4388C32.3221 68.4388 33.7601 70.2391 35.0105 72.9094C38.6901 80.7651 46.3954 86.5604 53.1602 86.5604C59.9251 86.5604 67.6304 80.7651 71.31 72.9094C72.5604 70.2391 73.9983 68.4388 74.88 68.4388C78.488 68.4388 79.7891 63.8032 76.7184 61.886C75.3366 61.0234 74.9062 59.773 74.9062 56.6225Z" fill="url(#paint0_radial_402_1000)" fill-opacity="0.2"/>
<defs>
<radialGradient id="paint0_radial_402_1000" cx="0" cy="0" r="1" gradientUnits="userSpaceOnUse" gradientTransform="translate(53.6459 53.9495) rotate(90) scale(90.3576)">
<stop stop-color="#A3DFD7"/>
<stop offset="1" stop-color="#215B54"/>
</radialGradient>
</defs>
</svg>
