<svg width="278" height="107" viewBox="0 0 278 107" fill="none" xmlns="http://www.w3.org/2000/svg">
<path d="M119.419 34.7872V18.8745H125.563C125.718 18.8745 125.891 18.8818 126.083 18.8966C126.282 18.9039 126.481 18.926 126.68 18.9629C127.512 19.0881 128.216 19.3791 128.79 19.8359C129.372 20.2852 129.811 20.8525 130.105 21.5376C130.407 22.2228 130.558 22.9816 130.558 23.8141C130.558 25.0149 130.242 26.0573 129.608 26.9414C128.974 27.8254 128.068 28.3816 126.89 28.61L126.326 28.7426H121.044V34.7872H119.419ZM129.055 34.7872L125.917 28.3116L127.475 27.7149L130.923 34.7872H129.055ZM121.044 27.1955H125.519C125.652 27.1955 125.807 27.1881 125.983 27.1734C126.16 27.1587 126.333 27.1329 126.503 27.0961C127.048 26.9782 127.494 26.7535 127.84 26.422C128.194 26.0905 128.455 25.6963 128.624 25.2396C128.801 24.7828 128.89 24.3076 128.89 23.8141C128.89 23.3205 128.801 22.8453 128.624 22.3885C128.455 21.9244 128.194 21.5266 127.84 21.1951C127.494 20.8636 127.048 20.6389 126.503 20.521C126.333 20.4842 126.16 20.4621 125.983 20.4547C125.807 20.44 125.652 20.4326 125.519 20.4326H121.044V27.1955ZM138.412 35.1187C137.248 35.1187 136.239 34.8609 135.384 34.3452C134.537 33.8295 133.878 33.1039 133.406 32.1683C132.935 31.2326 132.699 30.135 132.699 28.8752C132.699 27.5712 132.931 26.4441 133.395 25.4937C133.859 24.5434 134.511 23.8104 135.351 23.2947C136.198 22.779 137.197 22.5211 138.346 22.5211C139.525 22.5211 140.53 22.7937 141.363 23.3389C142.195 23.8767 142.825 24.6502 143.252 25.6595C143.68 26.6688 143.875 27.8733 143.838 29.273H142.18V28.6984C142.151 27.1513 141.816 25.9836 141.175 25.1954C140.541 24.4071 139.613 24.013 138.39 24.013C137.108 24.013 136.125 24.4292 135.44 25.2617C134.762 26.0941 134.423 27.2802 134.423 28.8199C134.423 30.3228 134.762 31.4905 135.44 32.323C136.125 33.1481 137.093 33.5606 138.346 33.5606C139.2 33.5606 139.944 33.3654 140.578 32.9749C141.219 32.5771 141.724 32.0062 142.092 31.2621L143.606 31.8478C143.134 32.8865 142.438 33.6932 141.517 34.2679C140.604 34.8351 139.569 35.1187 138.412 35.1187ZM133.848 29.273V27.9138H142.965V29.273H133.848ZM151.241 35.1187C150.04 35.1187 149.023 34.8499 148.191 34.3121C147.359 33.7743 146.725 33.0339 146.29 32.0909C145.863 31.1406 145.642 30.0502 145.627 28.8199C145.642 27.5675 145.87 26.4699 146.312 25.5269C146.754 24.5765 147.392 23.8398 148.224 23.3168C149.057 22.7864 150.066 22.5211 151.252 22.5211C152.46 22.5211 153.51 22.8158 154.401 23.4052C155.3 23.9945 155.915 24.8012 156.247 25.8252L154.656 26.3336C154.376 25.619 153.93 25.0664 153.318 24.676C152.714 24.2782 152.022 24.0793 151.241 24.0793C150.364 24.0793 149.639 24.2819 149.064 24.687C148.489 25.0849 148.062 25.6411 147.782 26.3557C147.502 27.0703 147.359 27.8917 147.351 28.8199C147.366 30.2491 147.697 31.3984 148.346 32.2677C148.994 33.1297 149.959 33.5606 151.241 33.5606C152.051 33.5606 152.74 33.3764 153.307 33.0081C153.882 32.6324 154.317 32.0872 154.611 31.3726L156.247 31.8588C155.805 32.9197 155.157 33.7301 154.302 34.29C153.447 34.8425 152.427 35.1187 151.241 35.1187ZM163.188 35.1187C162.002 35.1187 160.989 34.8499 160.149 34.3121C159.309 33.7743 158.665 33.0302 158.215 32.0799C157.766 31.1295 157.541 30.0392 157.541 28.8089C157.541 27.5565 157.77 26.4588 158.226 25.5158C158.683 24.5729 159.331 23.8398 160.171 23.3168C161.018 22.7864 162.024 22.5211 163.188 22.5211C164.381 22.5211 165.398 22.79 166.238 23.3278C167.085 23.8583 167.73 24.5986 168.172 25.549C168.621 26.492 168.846 27.5786 168.846 28.8089C168.846 30.0613 168.621 31.1627 168.172 32.113C167.722 33.056 167.074 33.7927 166.227 34.3231C165.38 34.8535 164.367 35.1187 163.188 35.1187ZM163.188 33.5606C164.514 33.5606 165.501 33.1223 166.15 32.2456C166.798 31.3616 167.122 30.216 167.122 28.8089C167.122 27.365 166.794 26.2157 166.138 25.3611C165.49 24.5066 164.507 24.0793 163.188 24.0793C162.297 24.0793 161.56 24.2819 160.978 24.687C160.403 25.0849 159.972 25.6411 159.685 26.3557C159.405 27.0629 159.265 27.8806 159.265 28.8089C159.265 30.2455 159.597 31.3984 160.26 32.2677C160.923 33.1297 161.899 33.5606 163.188 33.5606ZM185.517 34.7872L185.528 26.9524C185.528 26.0315 185.27 25.3096 184.754 24.7865C184.246 24.2561 183.597 23.9909 182.809 23.9909C182.36 23.9909 181.921 24.094 181.494 24.3003C181.067 24.5066 180.713 24.8381 180.433 25.2948C180.161 25.7516 180.024 26.3483 180.024 27.085L179.063 26.8087C179.041 25.9542 179.207 25.2064 179.56 24.5655C179.921 23.9246 180.415 23.4273 181.041 23.0737C181.675 22.7127 182.389 22.5322 183.185 22.5322C184.386 22.5322 185.347 22.9042 186.069 23.6483C186.791 24.385 187.152 25.3832 187.152 26.643L187.141 34.7872H185.517ZM171.272 34.7872V22.8527H172.731V25.7921H172.908V34.7872H171.272ZM178.411 34.7872L178.422 27.0629C178.422 26.1126 178.168 25.3648 177.66 24.8197C177.159 24.2671 176.496 23.9909 175.671 23.9909C174.845 23.9909 174.179 24.2745 173.67 24.8418C173.162 25.4016 172.908 26.1494 172.908 27.085L171.935 26.5546C171.935 25.7884 172.116 25.1033 172.477 24.4992C172.838 23.8877 173.332 23.4089 173.958 23.0626C174.584 22.709 175.295 22.5322 176.09 22.5322C176.849 22.5322 177.523 22.6943 178.113 23.0184C178.709 23.3426 179.177 23.8141 179.516 24.4329C179.855 25.0517 180.024 25.8031 180.024 26.6872L180.013 34.7872H178.411ZM195.003 35.1187C193.839 35.1187 192.83 34.8609 191.975 34.3452C191.128 33.8295 190.469 33.1039 189.997 32.1683C189.526 31.2326 189.29 30.135 189.29 28.8752C189.29 27.5712 189.522 26.4441 189.986 25.4937C190.45 24.5434 191.102 23.8104 191.942 23.2947C192.789 22.779 193.787 22.5211 194.937 22.5211C196.115 22.5211 197.121 22.7937 197.953 23.3389C198.786 23.8767 199.416 24.6502 199.843 25.6595C200.27 26.6688 200.466 27.8733 200.429 29.273H198.771V28.6984C198.742 27.1513 198.407 25.9836 197.766 25.1954C197.132 24.4071 196.204 24.013 194.981 24.013C193.699 24.013 192.716 24.4292 192.03 25.2617C191.353 26.0941 191.014 27.2802 191.014 28.8199C191.014 30.3228 191.353 31.4905 192.03 32.323C192.716 33.1481 193.684 33.5606 194.937 33.5606C195.791 33.5606 196.535 33.3654 197.169 32.9749C197.81 32.5771 198.314 32.0062 198.683 31.2621L200.197 31.8478C199.725 32.8865 199.029 33.6932 198.108 34.2679C197.195 34.8351 196.16 35.1187 195.003 35.1187ZM190.439 29.273V27.9138H199.556V29.273H190.439ZM211.177 34.7872V28.6984C211.177 28.0354 211.114 27.4276 210.989 26.8751C210.864 26.3152 210.661 25.8289 210.381 25.4164C210.109 24.9965 209.751 24.6723 209.309 24.4439C208.875 24.2156 208.344 24.1014 207.718 24.1014C207.143 24.1014 206.635 24.2008 206.193 24.3997C205.758 24.5986 205.39 24.886 205.088 25.2617C204.793 25.63 204.569 26.0794 204.414 26.6098C204.259 27.1403 204.182 27.7444 204.182 28.4221L203.033 28.168C203.033 26.945 203.246 25.9173 203.673 25.0849C204.101 24.2524 204.69 23.6225 205.442 23.1952C206.193 22.7679 207.055 22.5543 208.027 22.5543C208.742 22.5543 209.365 22.6648 209.895 22.8858C210.433 23.1068 210.886 23.4052 211.254 23.7809C211.63 24.1566 211.932 24.5876 212.16 25.0738C212.389 25.5527 212.554 26.0647 212.658 26.6098C212.761 27.1476 212.812 27.6854 212.812 28.2232V34.7872H211.177ZM202.546 34.7872V22.8527H204.016V25.7921H204.182V34.7872H202.546ZM220.245 35.1187C219.133 35.1187 218.183 34.8425 217.394 34.29C216.606 33.7301 216.002 32.9749 215.582 32.0246C215.162 31.0743 214.952 30.0024 214.952 28.8089C214.952 27.6228 215.158 26.5546 215.571 25.6042C215.991 24.6539 216.591 23.9025 217.372 23.3499C218.153 22.7974 219.089 22.5211 220.179 22.5211C221.299 22.5211 222.242 22.7937 223.008 23.3389C223.774 23.884 224.352 24.6318 224.743 25.5821C225.141 26.5251 225.34 27.6007 225.34 28.8089C225.34 29.995 225.144 31.0669 224.754 32.0246C224.363 32.9749 223.789 33.7301 223.03 34.29C222.271 34.8425 221.343 35.1187 220.245 35.1187ZM220.411 33.6048C221.258 33.6048 221.958 33.3985 222.511 32.986C223.063 32.5734 223.476 32.0062 223.748 31.2842C224.021 30.5549 224.157 29.7298 224.157 28.8089C224.157 27.8733 224.021 27.0482 223.748 26.3336C223.476 25.6116 223.063 25.048 222.511 24.6428C221.966 24.2377 221.277 24.0351 220.444 24.0351C219.59 24.0351 218.882 24.245 218.323 24.6649C217.763 25.0849 217.346 25.6558 217.074 26.3778C216.809 27.0997 216.676 27.9101 216.676 28.8089C216.676 29.715 216.812 30.5328 217.085 31.2621C217.365 31.9841 217.781 32.555 218.334 32.9749C218.886 33.3949 219.579 33.6048 220.411 33.6048ZM224.157 34.7872V25.8031H223.98V18.8745H225.616V34.7872H224.157ZM232.131 35.1187C231.232 35.1187 230.477 34.9567 229.865 34.6325C229.261 34.3084 228.808 33.8774 228.506 33.3396C228.204 32.8018 228.053 32.2161 228.053 31.5826C228.053 30.9343 228.182 30.3818 228.44 29.925C228.705 29.4609 229.062 29.0815 229.512 28.7868C229.968 28.4921 230.495 28.2674 231.092 28.1127C231.696 27.9654 232.363 27.8364 233.092 27.7259C233.829 27.6081 234.547 27.5086 235.247 27.4276C235.954 27.3392 236.573 27.2545 237.103 27.1734L236.529 27.527C236.551 26.3483 236.323 25.4753 235.844 24.9081C235.365 24.3408 234.532 24.0572 233.346 24.0572C232.528 24.0572 231.836 24.2413 231.269 24.6097C230.709 24.978 230.315 25.56 230.086 26.3557L228.506 25.8916C228.779 24.8233 229.328 23.9945 230.153 23.4052C230.978 22.8158 232.05 22.5211 233.368 22.5211C234.459 22.5211 235.383 22.7274 236.142 23.14C236.908 23.5452 237.45 24.1345 237.766 24.9081C237.914 25.2543 238.01 25.6411 238.054 26.0684C238.098 26.4956 238.12 26.9303 238.12 27.3723V34.7872H236.672V31.7925L237.092 31.9693C236.687 32.9934 236.057 33.7743 235.203 34.3121C234.348 34.8499 233.324 35.1187 232.131 35.1187ZM232.319 33.7153C233.077 33.7153 233.74 33.579 234.308 33.3065C234.875 33.0339 235.332 32.6618 235.678 32.1904C236.024 31.7115 236.249 31.1737 236.352 30.577C236.44 30.1939 236.488 29.774 236.496 29.3172C236.503 28.8531 236.507 28.5068 236.507 28.2785L237.126 28.5989C236.573 28.6726 235.973 28.7463 235.324 28.8199C234.683 28.8936 234.05 28.9783 233.424 29.0741C232.805 29.1699 232.245 29.2841 231.744 29.4167C231.405 29.5124 231.077 29.6487 230.76 29.8255C230.444 29.995 230.182 30.2234 229.976 30.5107C229.777 30.798 229.677 31.1553 229.677 31.5826C229.677 31.9288 229.762 32.264 229.932 32.5882C230.108 32.9123 230.388 33.1812 230.771 33.3949C231.162 33.6085 231.678 33.7153 232.319 33.7153ZM245.406 40.0915C245.141 40.0915 244.89 40.0583 244.655 39.992C244.426 39.9257 244.209 39.8447 244.003 39.7489L244.422 38.6218C244.761 38.7544 245.045 38.8207 245.273 38.8207C245.561 38.8207 245.782 38.7286 245.936 38.5444C246.098 38.3676 246.18 38.1724 246.18 37.9587C246.18 37.6199 246.029 37.3731 245.726 37.2183C245.424 37.071 245.086 36.9421 244.71 36.8316L245.528 34.5552H246.732L246.168 36.1022C246.566 36.2791 246.887 36.5185 247.13 36.8205C247.38 37.1299 247.506 37.5241 247.506 38.0029C247.506 38.5997 247.296 39.0969 246.876 39.4948C246.463 39.8926 245.973 40.0915 245.406 40.0915ZM245.947 35.1187C244.747 35.1187 243.73 34.8499 242.898 34.3121C242.065 33.7743 241.431 33.0339 240.997 32.0909C240.57 31.1406 240.349 30.0502 240.334 28.8199C240.349 27.5675 240.577 26.4699 241.019 25.5269C241.461 24.5765 242.098 23.8398 242.931 23.3168C243.763 22.7864 244.772 22.5211 245.959 22.5211C247.167 22.5211 248.217 22.8158 249.108 23.4052C250.007 23.9945 250.622 24.8012 250.953 25.8252L249.362 26.3336C249.082 25.619 248.636 25.0664 248.025 24.676C247.421 24.2782 246.728 24.0793 245.947 24.0793C245.071 24.0793 244.345 24.2819 243.771 24.687C243.196 25.0849 242.769 25.6411 242.489 26.3557C242.209 27.0703 242.065 27.8917 242.058 28.8199C242.072 30.2491 242.404 31.3984 243.052 32.2677C243.701 33.1297 244.666 33.5606 245.947 33.5606C246.758 33.5606 247.447 33.3764 248.014 33.0081C248.589 32.6324 249.023 32.0872 249.318 31.3726L250.953 31.8588C250.511 32.9197 249.863 33.7301 249.008 34.29C248.154 34.8425 247.134 35.1187 245.947 35.1187ZM259.701 20.952C259.391 20.952 259.089 20.8893 258.794 20.7641C258.5 20.6389 258.212 20.4952 257.932 20.3331C257.66 20.1637 257.398 20.0164 257.148 19.8911C256.905 19.7659 256.673 19.7033 256.452 19.7033C256.172 19.7033 255.991 19.8174 255.91 20.0458C255.829 20.2668 255.829 20.5063 255.91 20.7641H254.761C254.599 20.1084 254.665 19.5522 254.96 19.0955C255.255 18.6314 255.726 18.3993 256.374 18.3993C256.691 18.3993 256.997 18.4619 257.292 18.5872C257.586 18.7124 257.87 18.8597 258.142 19.0292C258.422 19.1912 258.688 19.3349 258.938 19.4601C259.189 19.5854 259.421 19.648 259.634 19.648C259.899 19.648 260.08 19.5375 260.176 19.3165C260.271 19.0955 260.275 18.8413 260.187 18.554H261.336C261.498 19.2023 261.432 19.7659 261.137 20.2447C260.842 20.7162 260.364 20.952 259.701 20.952ZM256.584 35.1187C255.686 35.1187 254.93 34.9567 254.319 34.6325C253.715 34.3084 253.262 33.8774 252.96 33.3396C252.658 32.8018 252.507 32.2161 252.507 31.5826C252.507 30.9343 252.636 30.3818 252.893 29.925C253.159 29.4609 253.516 29.0815 253.965 28.7868C254.422 28.4921 254.949 28.2674 255.546 28.1127C256.15 27.9654 256.816 27.8364 257.546 27.7259C258.282 27.6081 259.001 27.5086 259.701 27.4276C260.408 27.3392 261.027 27.2545 261.557 27.1734L260.982 27.527C261.005 26.3483 260.776 25.4753 260.297 24.9081C259.818 24.3408 258.986 24.0572 257.8 24.0572C256.982 24.0572 256.29 24.2413 255.722 24.6097C255.162 24.978 254.768 25.56 254.54 26.3557L252.96 25.8916C253.232 24.8233 253.781 23.9945 254.606 23.4052C255.431 22.8158 256.503 22.5211 257.822 22.5211C258.912 22.5211 259.837 22.7274 260.596 23.14C261.362 23.5452 261.903 24.1345 262.22 24.9081C262.367 25.2543 262.463 25.6411 262.507 26.0684C262.552 26.4956 262.574 26.9303 262.574 27.3723V34.7872H261.126V31.7925L261.546 31.9693C261.141 32.9934 260.511 33.7743 259.656 34.3121C258.802 34.8499 257.778 35.1187 256.584 35.1187ZM256.772 33.7153C257.531 33.7153 258.194 33.579 258.761 33.3065C259.329 33.0339 259.785 32.6618 260.132 32.1904C260.478 31.7115 260.702 31.1737 260.806 30.577C260.894 30.1939 260.942 29.774 260.949 29.3172C260.957 28.8531 260.96 28.5068 260.96 28.2785L261.579 28.5989C261.027 28.6726 260.426 28.7463 259.778 28.8199C259.137 28.8936 258.503 28.9783 257.877 29.0741C257.258 29.1699 256.698 29.2841 256.198 29.4167C255.859 29.5124 255.531 29.6487 255.214 29.8255C254.897 29.995 254.636 30.2234 254.429 30.5107C254.231 30.798 254.131 31.1553 254.131 31.5826C254.131 31.9288 254.216 32.264 254.385 32.5882C254.562 32.9123 254.842 33.1812 255.225 33.3949C255.616 33.6085 256.131 33.7153 256.772 33.7153ZM270.434 35.1187C269.248 35.1187 268.235 34.8499 267.395 34.3121C266.556 33.7743 265.911 33.0302 265.462 32.0799C265.012 31.1295 264.787 30.0392 264.787 28.8089C264.787 27.5565 265.016 26.4588 265.473 25.5158C265.929 24.5729 266.578 23.8398 267.417 23.3168C268.265 22.7864 269.27 22.5211 270.434 22.5211C271.628 22.5211 272.644 22.79 273.484 23.3278C274.331 23.8583 274.976 24.5986 275.418 25.549C275.867 26.492 276.092 27.5786 276.092 28.8089C276.092 30.0613 275.867 31.1627 275.418 32.113C274.969 33.056 274.32 33.7927 273.473 34.3231C272.626 34.8535 271.613 35.1187 270.434 35.1187ZM270.434 33.5606C271.76 33.5606 272.747 33.1223 273.396 32.2456C274.044 31.3616 274.368 30.216 274.368 28.8089C274.368 27.365 274.04 26.2157 273.385 25.3611C272.736 24.5066 271.753 24.0793 270.434 24.0793C269.543 24.0793 268.806 24.2819 268.224 24.687C267.65 25.0849 267.219 25.6411 266.931 26.3557C266.651 27.0629 266.511 27.8806 266.511 28.8089C266.511 30.2455 266.843 31.3984 267.506 32.2677C268.169 33.1297 269.145 33.5606 270.434 33.5606Z" fill="#3F3D56"/>
<path d="M120.577 77.992V53.9587H124.65L132.594 69.9142L140.538 53.9587H144.611V77.992H140.371V63.6388L133.395 77.992H131.793L124.816 63.6388V77.992H120.577ZM157.407 78.4927C155.593 78.4927 154.002 78.0866 152.633 77.2744C151.265 76.4621 150.197 75.3439 149.429 73.9197C148.672 72.4844 148.294 70.8377 148.294 68.9795C148.294 67.0991 148.684 65.4468 149.462 64.0226C150.241 62.5873 151.315 61.4691 152.684 60.668C154.052 59.8669 155.627 59.4663 157.407 59.4663C159.22 59.4663 160.811 59.8724 162.18 60.6847C163.56 61.4969 164.633 62.6207 165.401 64.056C166.169 65.4802 166.553 67.1214 166.553 68.9795C166.553 70.8488 166.163 72.5011 165.384 73.9364C164.617 75.3606 163.543 76.4788 162.163 77.2911C160.795 78.0922 159.209 78.4927 157.407 78.4927ZM157.407 74.2535C158.864 74.2535 159.949 73.7639 160.661 72.7848C161.384 71.7945 161.746 70.5261 161.746 68.9795C161.746 67.3773 161.379 66.0977 160.645 65.1409C159.921 64.184 158.842 63.7055 157.407 63.7055C156.416 63.7055 155.604 63.9281 154.97 64.3731C154.336 64.8182 153.863 65.4357 153.551 66.2257C153.251 67.0157 153.101 67.9336 153.101 68.9795C153.101 70.5929 153.462 71.878 154.186 72.8349C154.92 73.7806 155.994 74.2535 157.407 74.2535ZM182.507 77.992V69.4802C182.507 69.0685 182.484 68.5456 182.44 67.9114C182.395 67.266 182.256 66.6207 182.023 65.9754C181.789 65.33 181.405 64.7904 180.871 64.3564C180.348 63.9225 179.603 63.7055 178.635 63.7055C178.245 63.7055 177.828 63.7667 177.383 63.8891C176.938 64.0115 176.521 64.2507 176.131 64.6068C175.742 64.9517 175.419 65.4635 175.163 66.1423C174.918 66.821 174.796 67.7222 174.796 68.846L172.192 67.611C172.192 66.1868 172.482 64.8516 173.06 63.6054C173.639 62.3592 174.507 61.3523 175.664 60.5845C176.832 59.8168 178.301 59.4329 180.07 59.4329C181.483 59.4329 182.635 59.6722 183.525 60.1506C184.415 60.629 185.105 61.2354 185.594 61.9698C186.095 62.7041 186.451 63.4719 186.662 64.273C186.874 65.063 187.002 65.7862 187.046 66.4427C187.091 67.0991 187.113 67.5776 187.113 67.878V77.992H182.507ZM170.19 77.992V59.967H174.229V65.942H174.796V77.992H170.19ZM191.778 57.4635V53.458H196.317V57.4635H191.778ZM191.778 77.992V59.967H196.317V77.992H191.778ZM212.136 77.992C210.89 78.2257 209.666 78.3258 208.464 78.2925C207.274 78.2702 206.205 78.0644 205.26 77.6749C204.325 77.2744 203.613 76.6346 203.123 75.7556C202.678 74.9322 202.445 74.0977 202.422 73.2521C202.4 72.3954 202.389 71.4274 202.389 70.3481V54.9601H206.929V70.0811C206.929 70.782 206.934 71.4162 206.945 71.9837C206.968 72.54 207.084 72.9851 207.296 73.3189C207.696 73.9531 208.336 74.298 209.215 74.3537C210.094 74.4093 211.068 74.3648 212.136 74.2201V77.992ZM199.318 63.4719V59.967H212.136V63.4719H199.318ZM223.286 78.4927C221.472 78.4927 219.881 78.0866 218.513 77.2744C217.144 76.4621 216.076 75.3439 215.308 73.9197C214.552 72.4844 214.173 70.8377 214.173 68.9795C214.173 67.0991 214.563 65.4468 215.342 64.0226C216.12 62.5873 217.194 61.4691 218.563 60.668C219.931 59.8669 221.506 59.4663 223.286 59.4663C225.1 59.4663 226.691 59.8724 228.059 60.6847C229.439 61.4969 230.513 62.6207 231.28 64.056C232.048 65.4802 232.432 67.1214 232.432 68.9795C232.432 70.8488 232.043 72.5011 231.264 73.9364C230.496 75.3606 229.422 76.4788 228.043 77.2911C226.674 78.0922 225.088 78.4927 223.286 78.4927ZM223.286 74.2535C224.744 74.2535 225.828 73.7639 226.54 72.7848C227.264 71.7945 227.625 70.5261 227.625 68.9795C227.625 67.3773 227.258 66.0977 226.524 65.1409C225.801 64.184 224.721 63.7055 223.286 63.7055C222.296 63.7055 221.483 63.9281 220.849 64.3731C220.215 64.8182 219.742 65.4357 219.431 66.2257C219.13 67.0157 218.98 67.9336 218.98 68.9795C218.98 70.5929 219.342 71.878 220.065 72.8349C220.799 73.7806 221.873 74.2535 223.286 74.2535ZM236.102 77.992V59.967H240.108V64.3731L239.674 63.8057C239.907 63.1826 240.219 62.6151 240.608 62.1033C240.998 61.5915 241.476 61.1687 242.044 60.8349C242.478 60.5678 242.951 60.362 243.462 60.2174C243.974 60.0616 244.503 59.967 245.048 59.9336C245.593 59.8891 246.138 59.9003 246.684 59.967V64.2062C246.183 64.0505 245.599 64.0004 244.931 64.056C244.275 64.1005 243.679 64.2507 243.145 64.5066C242.611 64.7514 242.161 65.0797 241.793 65.4913C241.426 65.8919 241.148 66.3703 240.959 66.9267C240.77 67.4719 240.675 68.0894 240.675 68.7792V77.992H236.102ZM250.192 57.4635V53.458H254.732V57.4635H250.192ZM250.192 77.992V59.967H254.732V77.992H250.192ZM264.742 78.4927C263.452 78.4927 262.356 78.2479 261.454 77.7584C260.564 77.2577 259.885 76.5957 259.418 75.7723C258.962 74.9378 258.734 74.0199 258.734 73.0185C258.734 72.184 258.862 71.4218 259.118 70.732C259.374 70.0421 259.785 69.4357 260.353 68.9128C260.931 68.3787 261.705 67.9336 262.673 67.5776C263.34 67.3328 264.136 67.1158 265.059 66.9267C265.983 66.7375 267.029 66.5595 268.197 66.3926C269.365 66.2146 270.65 66.0199 272.052 65.8085L270.417 66.7097C270.417 65.6416 270.161 64.8571 269.649 64.3564C269.137 63.8557 268.28 63.6054 267.079 63.6054C266.411 63.6054 265.716 63.7667 264.993 64.0894C264.269 64.4121 263.763 64.9851 263.474 65.8085L259.368 64.5066C259.824 63.0157 260.681 61.8029 261.938 60.8683C263.196 59.9336 264.909 59.4663 267.079 59.4663C268.67 59.4663 270.083 59.7111 271.318 60.2007C272.553 60.6902 273.488 61.5359 274.122 62.7375C274.478 63.4051 274.689 64.0727 274.756 64.7403C274.823 65.4079 274.856 66.1534 274.856 66.9767V77.992H270.884V74.2869L271.452 75.0546C270.573 76.2674 269.621 77.1464 268.598 77.6916C267.585 78.2257 266.3 78.4927 264.742 78.4927ZM265.71 74.9211C266.545 74.9211 267.246 74.7765 267.813 74.4872C268.392 74.1868 268.848 73.8474 269.182 73.4691C269.527 73.0908 269.76 72.7737 269.883 72.5178C270.116 72.0282 270.25 71.4607 270.283 70.8154C270.328 70.1589 270.35 69.6137 270.35 69.1798L271.685 69.5136C270.339 69.7361 269.248 69.9253 268.414 70.0811C267.579 70.2257 266.906 70.3592 266.395 70.4816C265.883 70.604 265.432 70.7375 265.043 70.8822C264.598 71.0602 264.236 71.2549 263.958 71.4663C263.691 71.6666 263.49 71.8891 263.357 72.1339C263.235 72.3787 263.173 72.6513 263.173 72.9517C263.173 73.3634 263.274 73.7194 263.474 74.0199C263.685 74.3091 263.98 74.5317 264.358 74.6874C264.737 74.8432 265.187 74.9211 265.71 74.9211Z" fill="#00BFA6"/>
<path fill-rule="evenodd" clip-rule="evenodd" d="M8.84043 0C3.95799 0 0 3.95798 0 8.84042V97.2447C0 102.127 3.95798 106.085 8.84042 106.085H97.2447C102.127 106.085 106.085 102.127 106.085 97.2447V8.84043C106.085 3.95799 102.127 0 97.2447 0H8.84043ZM9.94548 31.2892C9.95092 31.0298 19.438 26.8621 31.0288 22.0288C42.6197 17.1946 52.7152 13.4186 53.4633 13.6381C54.2114 13.8566 64.005 17.8747 75.2268 22.5656L95.63 31.096L95.8848 42.0657L96.1396 53.0345H92.4843H88.8289V43.9664C88.8289 38.9789 88.5514 34.8983 88.2132 34.8983C87.875 34.8983 86.2427 35.3879 84.586 35.9873L81.5744 37.0764V46.3939C81.5744 54.109 81.8855 56.2219 83.3844 58.6803C84.3801 60.3134 85.1953 62.6693 85.1953 63.9162C85.1953 66.799 82.2038 71.7547 80.0501 72.4402C79.1433 72.7295 77.4158 74.8251 76.2125 77.0967C73.5029 82.2129 67.8843 87.9222 63.0311 90.493C57.7462 93.2923 47.2671 93.237 41.8643 90.3815C36.9485 87.7834 31.728 82.4342 28.9024 77.1012C27.6981 74.8269 25.9697 72.7295 25.0629 72.4402C22.9092 71.7547 19.9177 66.799 19.9177 63.9162C19.9177 62.6693 20.7329 60.3134 21.7286 58.6803C23.2266 56.2228 23.5377 54.1136 23.5349 46.4383L23.5313 37.1653L16.7339 34.463C12.9951 32.9758 9.94095 31.5476 9.94548 31.2892ZM74.32 55.7177C74.32 53.4443 73.8303 51.0939 73.2318 50.4954C71.6902 48.9538 33.4228 48.9538 31.8812 50.4954C31.2827 51.0939 30.7931 53.4443 30.7931 55.7177C30.7931 58.8707 30.3623 60.1221 28.9794 60.9854C25.9063 62.9042 27.2084 67.5434 30.8194 67.5434C31.7017 67.5434 33.1408 69.3453 34.3922 72.0176C38.0747 79.8797 45.7863 85.6796 52.5565 85.6796C59.3268 85.6796 67.0383 79.8797 70.7208 72.0176C71.9722 69.3453 73.4113 67.5434 74.2937 67.5434C77.9046 67.5434 79.2068 62.9042 76.1336 60.9854C74.7507 60.1221 74.32 58.8707 74.32 55.7177Z" fill="#00BFA6"/>
<path fill-rule="evenodd" clip-rule="evenodd" d="M8.84043 0C3.95799 0 0 3.95798 0 8.84042V97.2447C0 102.127 3.95798 106.085 8.84042 106.085H97.2447C102.127 106.085 106.085 102.127 106.085 97.2447V8.84043C106.085 3.95799 102.127 0 97.2447 0H8.84043ZM9.94548 31.2892C9.95092 31.0298 19.438 26.8621 31.0288 22.0288C42.6197 17.1946 52.7152 13.4186 53.4633 13.6381C54.2114 13.8566 64.005 17.8747 75.2268 22.5656L95.63 31.096L95.8848 42.0657L96.1396 53.0345H92.4843H88.8289V43.9664C88.8289 38.9789 88.5514 34.8983 88.2132 34.8983C87.875 34.8983 86.2427 35.3879 84.586 35.9873L81.5744 37.0764V46.3939C81.5744 54.109 81.8855 56.2219 83.3844 58.6803C84.3801 60.3134 85.1953 62.6693 85.1953 63.9162C85.1953 66.799 82.2038 71.7547 80.0501 72.4402C79.1433 72.7295 77.4158 74.8251 76.2125 77.0967C73.5029 82.2129 67.8843 87.9222 63.0311 90.493C57.7462 93.2923 47.2671 93.237 41.8643 90.3815C36.9485 87.7834 31.728 82.4342 28.9024 77.1012C27.6981 74.8269 25.9697 72.7295 25.0629 72.4402C22.9092 71.7547 19.9177 66.799 19.9177 63.9162C19.9177 62.6693 20.7329 60.3134 21.7286 58.6803C23.2266 56.2228 23.5377 54.1136 23.5349 46.4383L23.5313 37.1653L16.7339 34.463C12.9951 32.9758 9.94095 31.5476 9.94548 31.2892ZM74.32 55.7177C74.32 53.4443 73.8303 51.0939 73.2318 50.4954C71.6902 48.9538 33.4228 48.9538 31.8812 50.4954C31.2827 51.0939 30.7931 53.4443 30.7931 55.7177C30.7931 58.8707 30.3623 60.1221 28.9794 60.9854C25.9063 62.9042 27.2084 67.5434 30.8194 67.5434C31.7017 67.5434 33.1408 69.3453 34.3922 72.0176C38.0747 79.8797 45.7863 85.6796 52.5565 85.6796C59.3268 85.6796 67.0383 79.8797 70.7208 72.0176C71.9722 69.3453 73.4113 67.5434 74.2937 67.5434C77.9046 67.5434 79.2068 62.9042 76.1336 60.9854C74.7507 60.1221 74.32 58.8707 74.32 55.7177Z" fill="url(#paint0_radial_104_66)" fill-opacity="0.2"/>
<defs>
<radialGradient id="paint0_radial_104_66" cx="0" cy="0" r="1" gradientUnits="userSpaceOnUse" gradientTransform="translate(53.0425 53.0425) rotate(90) scale(90.4302)">
<stop stop-color="#A3DFD7"/>
<stop offset="1" stop-color="#215B54"/>
</radialGradient>
</defs>
</svg>
