<svg width="414" height="633" viewBox="0 0 414 633" fill="none" xmlns="http://www.w3.org/2000/svg">
<g clip-path="url(#clip0_104_281)">
<path d="M485.427 54.0426H72.8828C57.7492 54.0426 45.4433 66.3454 45.4433 81.4752V364.109C45.4433 379.239 57.7492 391.542 72.8828 391.542H485.427C500.56 391.542 512.866 379.239 512.866 364.109V81.4752C512.866 66.3454 500.56 54.0426 485.427 54.0426V54.0426Z" fill="#F2F2F2"/>
<path d="M440.669 75.8127H28.1252C12.9917 75.8127 0.68573 88.1155 0.68573 103.245V385.879C0.68573 401.009 12.9917 413.312 28.1252 413.312H440.669C455.803 413.312 468.109 401.009 468.109 385.879V103.245C468.109 88.1155 455.803 75.8127 440.669 75.8127ZM465.224 302.692C465.224 362.193 416.977 410.427 357.462 410.427H28.1252C14.5643 410.427 3.57106 399.437 3.57106 385.879V103.245C3.57106 89.6878 14.5643 78.6974 28.1251 78.6974H440.669C454.23 78.6974 465.224 89.6879 465.224 103.245V302.692Z" fill="#3F3D56"/>
<path d="M59.613 352.061L57.1715 350.524C58.7586 348.002 60.3964 345.558 62.0377 343.259L64.3862 344.935C62.7766 347.188 61.1712 349.586 59.6131 352.061H59.613Z" fill="#CCCCCC"/>
<path d="M75.5225 331.504L73.4571 329.49C77.8598 324.979 82.4935 321.107 87.2286 317.98L88.8192 320.387C84.2553 323.4 79.7815 327.141 75.5225 331.504V331.504ZM147.505 313.296C144.06 313.296 140.921 312.856 138.571 312.471L139.037 309.624C141.418 310.014 144.286 310.412 147.505 310.412C150.348 310.412 153.142 310.1 156.048 309.457L156.67 312.274C153.558 312.962 150.56 313.296 147.505 313.296V313.296ZM104.331 312.915L103.464 310.164C106.563 309.186 109.774 308.454 113.006 307.986C115.783 307.584 118.437 307.389 121.12 307.389H121.298V310.274H121.12C118.576 310.274 116.058 310.459 113.42 310.841C110.341 311.286 107.282 311.984 104.331 312.915H104.331ZM173.105 304.578L171.261 302.36C175.242 299.054 178.096 295.056 181.118 290.822L182.323 289.138L184.665 290.824L183.467 292.498C180.333 296.887 177.373 301.034 173.105 304.578V304.578ZM196.244 278.13L194.469 275.855C198.358 272.821 202.752 270.362 207.902 268.339C208.779 267.994 209.617 267.686 210.421 267.412L211.353 270.142C210.588 270.403 209.792 270.696 208.958 271.024C204.07 272.944 199.911 275.268 196.244 278.13ZM231.077 268.11C230.107 268.11 229.186 268.101 228.301 268.091L228.335 265.207C229.239 265.217 230.183 265.219 231.182 265.226C234.578 265.226 239.306 265.129 245.793 264.378L246.125 267.243C239.425 268.019 234.621 268.1 231.077 268.11ZM263.677 264.333L263.105 261.506C268.287 260.458 274.316 259.211 280.284 257.671L281.006 260.464C274.969 262.021 268.896 263.278 263.677 264.333ZM298.002 254.996L296.923 252.32C302.708 249.989 307.732 247.359 312.281 244.28L313.898 246.669C309.178 249.863 303.978 252.587 298.002 254.996ZM327.155 234.384L324.813 232.698C325.618 231.581 326.314 230.491 326.987 229.438C328.973 226.328 331.028 223.112 335.921 219.164L336.263 218.89L338.051 221.153L337.733 221.407C333.206 225.061 331.367 227.941 329.419 230.991C328.725 232.077 328.006 233.201 327.155 234.384ZM353.039 212.749L351.986 210.063C357.129 208.048 362.937 206.426 369.249 205.242L369.782 208.077C363.647 209.228 358.013 210.8 353.039 212.749V212.749Z" fill="#CCCCCC"/>
<path d="M387.418 205.959L387.237 203.08C390.041 202.904 392.972 202.789 395.95 202.735L396.002 205.62C393.066 205.672 390.178 205.786 387.418 205.959Z" fill="#CCCCCC"/>
<path d="M91.7873 107.069H51.306C49.2719 107.069 47.6128 108.728 47.6128 110.762C47.6128 112.81 49.2719 114.468 51.306 114.468H91.7873C93.8214 114.468 95.4805 112.81 95.4805 110.762C95.4805 108.728 93.8214 107.069 91.7873 107.069Z" fill="#E6E6E6"/>
<path d="M159.592 107.069H119.111C117.077 107.069 115.418 108.728 115.418 110.762C115.418 112.81 117.077 114.468 119.111 114.468H159.592C161.627 114.468 163.286 112.81 163.286 110.762C163.286 108.728 161.627 107.069 159.592 107.069Z" fill="#E6E6E6"/>
<path d="M227.398 107.069H186.916C184.882 107.069 183.223 108.728 183.223 110.762C183.223 112.81 184.882 114.468 186.916 114.468H227.398C229.432 114.468 231.091 112.81 231.091 110.762C231.091 108.728 229.432 107.069 227.398 107.069Z" fill="#E6E6E6"/>
<path d="M415.452 349.85H47.5723V352.735H415.452V349.85Z" fill="#E6E6E6"/>
<path d="M396.019 139.274C369.835 139.952 350.301 147.654 337.923 162.135C333.35 167.5 331.489 171.726 329.527 176.197C327.579 180.611 325.588 185.154 320.957 191.082V186.178C323.828 181.966 325.372 178.447 326.886 175.029C328.935 170.356 330.883 165.942 335.73 160.274C348.656 145.13 368.911 137.096 395.932 136.39L396.019 139.274V139.274Z" fill="#CCCCCC"/>
<path d="M329.527 176.197C327.579 180.611 325.588 185.154 320.957 191.082C320.409 191.788 319.817 192.524 319.183 193.288C302.477 213.149 280.159 219.668 262.212 224.918C261.087 225.25 259.99 225.553 258.923 225.841C242.967 230.168 234.224 230.009 227.718 229.908C221.183 229.793 216.869 229.721 209.151 234.134C194.998 242.197 189.199 253.995 183.587 265.404C177.802 277.144 172.348 288.235 158.441 293.442C148.79 297.048 142.009 295.259 134.839 293.384C128.679 291.754 117.576 251.638 107.746 245.788C87.4476 250.043 75.1128 316.36 59.7195 351.87L57.0651 350.716C72.8622 314.312 85.875 247.432 107.14 242.961C116.618 240.971 129.097 288.884 135.575 290.586C142.298 292.36 148.631 294.019 157.431 290.73C170.271 285.942 175.234 275.831 180.99 264.134C186.53 252.884 192.805 240.134 207.708 231.625C216.119 226.822 221.009 226.908 227.761 227.024C234.195 227.139 242.88 227.283 258.923 222.856C259.73 222.625 260.553 222.394 261.404 222.149C278.976 217.014 300.832 210.625 316.961 191.442C318.548 189.553 319.861 187.808 320.957 186.178C323.828 181.966 325.372 178.447 326.886 175.029C328.935 170.356 331.489 171.726 329.527 176.197V176.197Z" fill="#00BFA6"/>
<path d="M175.682 506.167C174.54 502.192 172.584 498.801 170.256 496.382L161.796 457.829L143.357 462.345L153.924 500.967C153.229 504.234 153.368 508.135 154.51 512.111C157.119 521.193 163.973 527.226 169.82 525.584C175.666 523.943 178.291 515.25 175.682 506.168L175.682 506.167Z" fill="#FFB6B6"/>
<path d="M173.131 253.273C173.131 253.273 144.012 252.676 136.607 273.877C129.868 293.173 121.879 346.187 126.197 349.25L144.581 479.758L170.795 476.157L164.067 319.567L173.131 253.273Z" fill="#00BFA6"/>
<path d="M307.973 495.523L302.808 632.542H234.282L231.512 571.143L219.336 632.542H145.89L155.051 526.994L164.515 504.797L170.92 489.754L307.973 495.523Z" fill="#2F2E41"/>
<path d="M253.152 227.255L205.544 224.37L189.675 244.562L155.051 257.543L170.92 411.869L163.707 504.177C163.707 504.177 264.693 584.946 307.973 495.523L296.432 387.35L299.317 261.87L266.136 247.447L253.152 227.255Z" fill="#00BFA6"/>
<path d="M344.805 192.151C345.321 197.151 344.665 201.853 343.155 205.624L351.085 252.949L328.45 256.062L322.843 207.721C320.593 204.339 318.99 199.87 318.473 194.869C317.293 183.446 322.231 173.577 329.502 172.826C336.774 172.075 343.625 180.727 344.805 192.151V192.151H344.805Z" fill="#FFB6B6"/>
<path d="M305.379 267.288C297.576 253.955 278.22 252.698 269.551 265.485C267.181 268.981 267.841 272.911 267.276 277.632C264.873 297.675 303.291 356.901 329.873 363.72C333.361 364.615 335.349 368.377 338.869 369.133H338.869C349.299 371.374 359.01 363.098 358.447 352.448L351.226 215.85L320.891 226.194L322.833 297.113L305.379 267.288L305.379 267.288Z" fill="#00BFA6"/>
<path d="M234.288 220.638C257.449 220.638 276.223 201.867 276.223 178.713C276.223 155.559 257.449 136.789 234.288 136.789C211.128 136.789 192.354 155.559 192.354 178.713C192.354 201.867 211.128 220.638 234.288 220.638Z" fill="#FFB6B6"/>
<path d="M273.349 147.928C272.989 148.015 278.869 142.284 279.12 142.159C284.891 139.274 278.961 167.471 274.792 166.678C264.534 164.731 260.106 160.865 256.124 170.514C255.013 173.197 254.32 176.226 252.156 178.144C249.185 180.755 244.251 180.538 241.827 183.654C239.879 186.163 240.442 189.856 241.885 192.683C243.327 195.524 245.52 197.933 246.833 200.832C248.305 204.091 242.029 214.461 239.634 220.288V220.303L239.62 220.337C238.984 221.865 237.471 217.462 235.875 217.023C233.964 216.497 231.15 221.007 228.107 220.187C228.093 220.187 228.078 220.173 228.064 220.173C225.164 219.365 221.933 218.5 218.73 217.634H218.716C209.699 215.183 207.419 218.702 206.987 218.601L201.389 212.745C199.468 211.347 199.685 206.833 198.331 205.62C197.223 204.629 194.461 206.92 193.647 205.967C189.656 201.294 188.738 196.619 186.385 187.389C184.236 178.952 179.778 153.697 188.939 152.558C197.58 151.476 191.262 139.447 199.961 139.894C199.442 137.702 200.408 135.351 201.981 133.736C203.539 132.106 205.616 131.096 207.708 130.231C218.023 126.019 216.306 122.399 227.184 124.851C228.266 123.337 243.977 124.346 245.939 124.851C246.083 124.88 241.077 126.077 248.824 124.851C248.535 126.625 253.44 127.404 253.152 129.178C254.234 127.721 265.862 136.087 266.136 137.832C266.497 140.01 263.207 138.899 265.4 139.231C266.699 139.433 268.92 142.072 268.704 143.385C269.642 142.115 270.579 140.861 271.531 139.591C271.705 139.606 271.863 139.635 272.036 139.664C276.422 140.5 271.394 154.834 271.575 150.365C271.907 142.159 277.72 146.962 273.349 147.928Z" fill="#2F2E41"/>
<path d="M459.622 449.602H410.974C407.953 449.602 405.496 447.145 405.496 444.125C399.064 425.33 399.191 406.913 405.496 388.852C405.496 385.832 407.953 383.375 410.974 383.375H459.622C462.643 383.375 465.1 385.832 465.1 388.852V444.125C465.1 447.145 462.643 449.602 459.622 449.602Z" fill="#E6E6E6"/>
<path d="M421.397 385.007C413.516 385.007 407.128 391.394 407.128 399.273V442.953C407.128 445.724 409.375 447.97 412.147 447.97H439.049C452.535 447.97 463.468 437.04 463.468 423.558V390.025C463.468 387.254 461.221 385.007 458.449 385.007H421.397Z" fill="white"/>
<path d="M458.85 412.177H411.629C411.055 412.177 410.587 411.71 410.587 411.136C410.587 410.562 411.055 410.095 411.629 410.095H458.85C459.424 410.095 459.891 410.562 459.891 411.136C459.891 411.71 459.424 412.177 458.85 412.177Z" fill="#E6E6E6"/>
<path d="M17.9803 36.1992C27.9106 36.1992 35.9607 28.3207 35.9607 18.6021C35.9607 8.88349 27.9106 1.005 17.9803 1.005C8.05007 1.005 0 8.88349 0 18.6021C0 28.3207 8.05007 36.1992 17.9803 36.1992Z" fill="#00BFA6"/>
<path d="M162.121 12.582H65.34C62.0198 12.582 59.3184 9.88129 59.3184 6.56193C59.3184 3.24257 62.0198 0.54187 65.34 0.54187H162.121C165.441 0.54187 168.143 3.24257 168.143 6.56193C168.143 9.88129 165.441 12.582 162.121 12.582Z" fill="#F2F2F2"/>
<path d="M237.649 32.9576H65.34C62.0198 32.9576 59.3184 30.2569 59.3184 26.9375C59.3184 23.6182 62.0198 20.9175 65.34 20.9175H237.649C240.969 20.9175 243.671 23.6182 243.671 26.9375C243.671 30.2569 240.969 32.9576 237.649 32.9576Z" fill="#F2F2F2"/>
</g>
<defs>
<clipPath id="clip0_104_281">
<rect width="523" height="632" fill="white" transform="translate(0 0.54187)"/>
</clipPath>
</defs>
</svg>
